HIERARCHY
ROOT Hips
{
  OFFSET -102.467 93.6631 130.069
  CHANNELS 6 Xposition Yposition Zposition Zrotation Xrotation Yrotation
  JOINT LeftUpLeg
  {
    OFFSET 8.64259 1.95398 -2.38835
    CHANNELS 3 Zrotation Xrotation Yrotation
    JOINT LeftLeg
    {
      OFFSET 43.7702 0 0
      CHANNELS 3 Zrotation Xrotation Yrotation
      JOINT LeftFoot
      {
        OFFSET 40.6238 0 0
        CHANNELS 3 Zrotation Xrotation Yrotation
        JOINT LeftToeBase
        {
          OFFSET 12.7242 0 0
          CHANNELS 3 Zrotation Xrotation Yrotation
          End Site
          {
            OFFSET 0 0 0
          }
        }
      }
    }
  }
  JOINT RightUpLeg
  {
    OFFSET -8.2249 1.95398 -2.59336
    CHANNELS 3 Zrotation Xrotation Yrotation
    JOINT RightLeg
    {
      OFFSET 43.5653 0 0
      CHANNELS 3 Zrotation Xrotation Yrotation
      JOINT RightFoot
      {
        OFFSET 40.6238 0 0
        CHANNELS 3 Zrotation Xrotation Yrotation
        JOINT RightToeBase
        {
          OFFSET 12.7242 0 0
          CHANNELS 3 Zrotation Xrotation Yrotation
          End Site
          {
            OFFSET 0 0 0
          }
        }
      }
    }
  }
  JOINT Spine
  {
    OFFSET 0.165834 0.87714 6.61349
    CHANNELS 3 Zrotation Xrotation Yrotation
    JOINT Spine1
    {
      OFFSET 7.38963 1.71661e-005 0
      CHANNELS 3 Zrotation Xrotation Yrotation
      JOINT Spine2
      {
        OFFSET 11.9445 1.14441e-005 0
        CHANNELS 3 Zrotation Xrotation Yrotation
        JOINT Spine3
        {
          OFFSET 14.7254 4.19617e-005 0
          CHANNELS 3 Zrotation Xrotation Yrotation
          JOINT Spine4
          {
            OFFSET 10.9679 0 0
            CHANNELS 3 Zrotation Xrotation Yrotation
            JOINT RightShoulder
            {
              OFFSET 2.46616 -1.6653 3.69651
              CHANNELS 3 Zrotation Xrotation Yrotation
              JOINT RightArm
              {
                OFFSET 13.0012 0 0
                CHANNELS 3 Zrotation Xrotation Yrotation
                JOINT RightForeArm
                {
                  OFFSET 28.7848 1.52588e-005 0
                  CHANNELS 3 Zrotation Xrotation Yrotation
                  JOINT RightHand
                  {
                    OFFSET 26.5688 1.52588e-005 0
                    CHANNELS 3 Zrotation Xrotation Yrotation
                    End Site
                    {
                      OFFSET 0 0 0
                    }
                  }
                }
              }
            }
            JOINT LeftShoulder
            {
              OFFSET 2.38034 -1.29275 -3.7523
              CHANNELS 3 Zrotation Xrotation Yrotation
              JOINT LeftArm
              {
                OFFSET 16.3182 6.10351e-005 0
                CHANNELS 3 Zrotation Xrotation Yrotation
                JOINT LeftForeArm
                {
                  OFFSET 27.0901 0 0
                  CHANNELS 3 Zrotation Xrotation Yrotation
                  JOINT LeftHand
                  {
                    OFFSET 24.5451 1.52588e-005 0
                    CHANNELS 3 Zrotation Xrotation Yrotation
                    End Site
                    {
                      OFFSET 0 0 0
                    }
                  }
                }
              }
            }
            JOINT Neck
            {
              OFFSET 5.0226 -0.0266342 0
              CHANNELS 3 Zrotation Xrotation Yrotation
              JOINT Head
              {
                OFFSET 6.69363 2.86102e-005 0
                CHANNELS 3 Zrotation Xrotation Yrotation
                End Site
                {
                  OFFSET 0 0 0
                }
              }
            }
          }
        }
      }
    }
  }
}
MOTION
Frames:	14
Frame Time:	0.0416667
48.4659 74.5498 -12.5808 -128.777 -53.2377 -136.402 176.543 26.5178 101.134 -46.6917 24.3973 7.22726 46.5046 -7.24846 -5.80899 65.5628 1.12708 13.8135 171.691 38.0635 94.5389 -92.2337 -19.4726 -1.60218 55.3242 -0.866314 -6.9015 52.2087 -2.85968 7.59045 -0.0481144 10.6215 -88.7222 5.61927 0.436902 2.49997 -6.05396 0.546472 2.47833 -28.57 -0.33438 2.51573 -8.55731 -0.334379 2.51572 99.9331 -50.4035 -85.6343 25.3997 -18.235 -5.94659 0.201943 6.34563 -54.0929 -14.7579 -0.331548 -2.63856 -88.3337 -46.9087 80.3796 1.80034 2.12312 -15.3532 -2.11829 -2.52453 -14.5237 4.46283 -0.345914 -8.64444 -3.03758 -15.2777 -4.12241 -7.5533 -14.0889 -21.213 
50.0172 72.5434 -3.28076 -115.076 -49.2316 -124.575 179.453 33.1937 100.569 -63.916 21.7914 4.72604 56.0232 0.413498 6.40053 65.5381 0.771934 12.9049 171.857 47.177 92.2332 -101.901 -18.5627 -2.67298 51.6392 2.16986 -4.20605 40.2115 1.78156 16.9196 0.0111615 10.7992 -88.5804 5.25948 0.610103 2.77319 -6.41423 0.731517 2.74367 -28.9256 -0.251213 2.82832 -8.91293 -0.251196 2.82833 99.9615 -48.2863 -85.6816 24.4314 -21.215 -10.3168 -15.8565 9.0994 -88.5036 -16.782 -0.219073 -3.76049 -89.7344 -47.9954 78.4446 2.23662 -2.52368 -22.8162 -1.04148 -3.83511 -13.0503 6.18443 -0.430906 -8.93693 6.71151 -15.5535 -2.2287 -8.98626 -13.9708 -21.272 
49.9735 72.897 3.0405 -106.972 -51.6919 -118.965 -178.315 37.6435 98.1374 -68.9446 22.2671 3.13924 60.5085 4.63814 9.04448 68.2332 1.3527 14.3011 159.543 57.1486 96.9893 -97.9697 -18.4127 -0.971587 55.4069 2.76456 2.43821 41.5103 2.20148 18.7556 -0.369043 11.2254 -88.6335 4.4173 -0.18133 2.68047 -7.25638 -0.0632252 2.68585 -29.7718 -0.978309 2.50227 -9.75912 -0.978296 2.50226 99.2314 -50.0645 -86.7391 24.2414 -21.2316 -13.0151 -22.1005 13.8121 -108.312 -19.8665 -0.486019 -2.39764 -93.5264 -49.2507 73.0068 0.809835 -9.00272 -44.5274 1.29207 0.185021 -9.94806 6.87817 -0.438395 -8.6657 20.0609 -16.009 -0.019155 -11.5591 -14.1386 -21.1125 
47.1607 76.0902 8.39636 -100.774 -55.485 -116.536 -176.039 35.0407 93.9532 -63.4254 22.9087 1.98944 63.1323 6.91782 9.23142 68.64 1.80851 15.3131 146.194 59.5898 102.659 -86.5277 -13.0476 2.67915 61.7566 -1.08811 1.34493 44.1408 2.73904 21.4697 -0.956599 11.4096 -88.6559 4.06228 -1.36844 2.63755 -7.61077 -1.25107 2.69517 -30.1365 -2.0977 2.10467 -10.1239 -2.09771 2.10467 99.3901 -53.1568 -86.3373 23.5588 -26.4687 -11.4401 -26.6584 13.561 -94.8259 -19.9742 -0.596066 -1.71354 -95.7115 -46.3929 68.8231 -6.7801 -8.76696 -63.78 3.45527 1.39438 -16.5385 5.98803 -0.420872 -8.90081 28.679 -16.4031 1.9476 -14.6475 -14.6239 -20.241 
40.9277 79.6091 14.5326 -92.2462 -53.7135 -110.269 -174.44 27.5281 94.8211 -55.1586 22.857 1.72037 65.4014 6.41165 4.81269 70.1749 1.93682 15.5282 146.854 56.4685 103.051 -78.8741 -13.8786 4.92128 58.249 -0.997623 -3.42378 46.6681 2.11499 19.8355 -1.31067 11.0243 -88.7586 4.84078 -2.10924 2.46619 -6.83097 -1.99867 2.55657 -29.3694 -2.75278 1.71833 -9.35679 -2.75278 1.71833 97.8684 -54.2565 -88.5334 25.3065 -31.8499 -5.6026 -21.7457 5.74244 -77.6097 -27.5954 -1.19131 -0.240431 -94.0417 -43.5949 70.5335 -3.79103 -4.71342 -67.4903 6.302 5.11802 -33.9778 8.24201 -0.622259 -10.0892 29.7344 -14.3588 5.98825 -16.1883 -13.8944 -20.9201 
32.233 81.6553 21.7519 -85.46 -46.1264 -104.461 -179.359 23.6952 97.0014 -58.1184 17.8863 4.49536 55.5439 -3.37622 -7.07341 74.0689 2.07057 15.308 157.532 46.2938 97.5728 -73.4283 -11.3067 4.886 54.0791 6.47417 8.07335 21.4183 2.76724 12.5282 -1.00685 10.4235 -89.1587 6.03809 -1.65746 1.70718 -5.63297 -1.58074 1.77845 -28.1724 -2.09388 1.13009 -8.15979 -2.09389 1.13007 95.774 -54.4462 -91.6068 28.7447 -27.6695 3.12744 -12.4023 3.04076 -65.7053 -24.0774 -0.883283 -0.933021 -92.9785 -45.6939 72.8432 -2.2395 0.387156 -53.3766 7.81674 2.96474 -46.9423 3.81815 -0.389428 -9.94837 25.503 -11.8763 6.4542 -14.5829 -12.1189 -17.8144 
22.3746 82.9445 27.9251 -82.1855 -37.7543 -101.058 171.1 29.1987 95.9541 -77.1173 12.1971 6.01785 50.565 -0.370995 10.5673 57.9211 0.952488 13.5893 163.531 32.9951 96.1163 -66.8585 -15.4943 6.38319 63.3059 1.67181 6.33187 25.7929 2.8861 16.3971 -0.570558 10.1863 -89.6834 6.50234 -1.00491 0.657729 -5.16844 -0.974981 0.701315 -27.7058 -1.15612 0.325289 -7.69311 -1.1561 0.325302 95.1757 -54.7883 -92.447 25.8004 -22.0684 0.861436 -3.58406 3.61942 -55.7519 -23.1956 -0.405403 -3.39374 -91.5282 -50.9912 76.4041 -1.39633 4.58695 -33.9163 5.52567 5.18955 -35.7503 3.91142 -0.408297 -10.2275 27.7994 -9.67276 4.45398 -17.6216 -9.51569 -12.1298 
13.6289 83.0311 33.5336 -77.358 -19.6812 -95.7808 171.961 44.8808 95.4709 -95.521 7.09856 4.0674 57.0454 7.32262 17.9692 55.6122 1.28725 14.553 172.094 25.6504 97.8209 -63.0795 -20.2162 2.89226 60.744 4.78032 9.99284 23.3792 3.59575 21.3631 0.519795 10.084 -89.9521 6.70108 1.0585 0.0562394 -4.96956 1.05996 0.00959434 -27.5067 0.99266 0.371793 -7.4941 0.992662 0.37179 95.8417 -52.1334 -91.7754 23.2384 -18.3442 -12.1099 -5.475 2.48362 -61.7188 -17.681 -0.289846 -3.24396 -88.0204 -59.2822 82.9601 1.2736 9.36193 -9.62652 0.55253 9.33936 -21.5454 6.97096 -0.277125 -6.66528 31.5298 -5.1502 7.35639 -18.9466 -6.61236 -10.4025 
2.55778 84.5263 38.2963 -72.6013 -8.38563 -99.7515 -173.895 61.026 82.5679 -88.9926 20.9501 1.61159 59.6571 6.38267 14.4355 65.1082 1.83807 15.5937 176.127 14.6529 89.3049 -51.3495 -25.3705 -0.653868 65.9914 2.13084 10.3223 18.9979 4.09442 26.1627 1.0183 9.70078 -89.2921 7.4577 2.34 1.28223 -4.21167 2.39416 1.17795 -26.7533 1.84649 1.92625 -6.74062 1.8465 1.92625 98.0668 -44.8707 -88.9906 22.8137 -10.9294 -26.8435 -10.5298 5.27793 -86.0746 -13.9401 -0.0802114 -4.6385 -86.8371 -56.0827 84.145 -14.0868 10.2758 19.1887 -0.580702 7.07564 -20.6863 4.86985 -0.273143 -7.25476 29.7051 -4.25873 4.93114 -18.7697 -5.31939 -5.58447 
-11.7263 86.035 41.2763 -70.659 -3.81897 -101.31 -157.707 61.8586 71.5336 -72.4488 17.3669 -2.76896 60.1373 2.71402 5.72669 69.5562 0.264389 11.8015 178.153 -0.808046 86.7926 -28.1124 -26.2867 -4.05052 50.0162 10.4835 17.3755 9.89412 4.81668 22.1097 1.41363 9.53074 -88.9388 7.78026 3.28453 1.92376 -3.88778 3.36598 1.77724 -26.4334 2.5547 2.822 -6.42079 2.55467 2.82198 100.157 -37.3139 -85.893 21.8455 -2.76323 -35.6903 -9.22648 6.96793 -105.282 -16.8551 -0.187558 -3.96802 -89.3459 -49.3854 79.3384 -27.7141 7.1539 30.2112 0.72114 7.75349 -23.0075 4.51145 -0.384061 -9.28695 25.0898 -5.49176 0.793425 -16.4223 -5.18322 -3.53121 
-28.1601 85.7001 43.2568 -71.5835 -6.29562 -98.07 -165.044 50.2765 79.2058 -65.6951 19.743 -3.71061 61.5306 4.63839 8.79496 66.9277 0.207412 11.6341 176.957 0.14535 90.0378 -45.9788 -21.2327 -1.65625 35.9228 15.4311 16.5136 0.490179 6.42473 -0.988253 0.910527 9.63795 -89.1841 7.58181 2.17227 1.49034 -4.08808 2.23575 1.39327 -26.6255 1.62404 2.07426 -6.6129 1.62402 2.07425 99.7406 -42.1964 -86.3182 18.7097 -19.2703 -23.7385 -15.76 12.7467 -93.5927 -8.74123 -0.0876 -4.11801 -87.5645 -54.8945 82.9199 -15.425 9.07678 14.0284 1.12022 3.55658 -27.82 3.25708 -0.346531 -9.56444 24.1659 -5.28402 -2.37644 -16.4046 -4.08953 -1.3937 
-44.126 85.2909 43.806 -75.7477 -7.11177 -102.473 -172.992 30.231 78.3788 -58.6982 20.3955 -2.27585 65.0942 8.31784 12.5159 71.127 1.56209 14.5384 177.222 24.3543 89.7711 -96.302 -17.4641 -3.14742 46.5044 8.76667 7.1728 12.0807 3.80255 -3.08243 0.390392 10.0492 -88.7331 6.7574 1.32116 2.43997 -4.91495 1.42727 2.37949 -27.4335 0.527044 2.724 -7.4208 0.527036 2.724 99.0276 -49.5883 -87.0978 29.0088 -23.3901 -4.8085 -18.6155 0.780414 -56.7236 -12.9737 -0.360361 -2.2528 -84.4564 -59.4875 87.8556 2.33264 1.38128 -15.868 1.66835 -1.15505 -35.6443 8.51249 -0.497621 -8.68233 27.8715 -3.1803 1.41903 -17.7281 -3.04647 -4.5756 
-60.51 85.4075 44.3006 -72.8463 -13.0068 -99.9218 -179.332 16.4084 82.3556 -45.9076 25.6476 1.62721 65.4828 8.81679 12.3443 74.4698 2.66013 16.7562 177.276 57.1096 88.6012 -109.563 -11.061 -3.80339 50.3198 5.88534 5.95103 40.8359 -2.98714 -0.266016 -0.158266 9.13366 -89.0792 8.60224 0.0919993 1.81546 -3.06997 0.171827 1.80967 -25.5954 -0.457785 1.75924 -5.58274 -0.457786 1.75922 99.4284 -51.179 -86.3775 39.1833 -14.5502 23.4149 -19.0668 -13.6293 -45.5262 -10.9869 -0.514482 0.273932 -83.9037 -53.9362 88.0766 -4.14692 -10.5907 -40.3739 7.52056 -1.35098 -56.6691 11.7294 -0.831562 -10.3558 27.3404 -2.60241 2.04754 -19.6264 -2.4676 -5.8401 
-80.4574 88.2704 45.4151 -71.5817 -11.2608 -91.6241 -179.036 -1.27156 89.9353 -26.9908 25.0111 6.3605 47.3141 -6.50513 -4.54257 72.2304 -2.12189 6.90994 176.534 67.5711 90.1554 -84.7604 -12.3449 -2.14099 59.0568 2.55456 4.88146 60.7424 -3.92895 9.17709 -0.483383 8.62671 -90.1206 9.61717 -1.01821 -0.171031 -2.05336 -1.02476 -0.126055 -24.5911 -0.919699 -0.469156 -4.57845 -0.919734 -0.469168 96.0784 -45.2485 -92.2243 45.799 -12.7292 42.2796 -7.36183 -1.18384 -44.3164 -11.1698 -0.110012 -4.44319 -82.2084 -48.6468 90.1179 -8.49401 -9.75205 -42.0014 16.2309 -3.13574 -83.3817 12.123 -0.686217 -9.04846 27.7754 -0.182262 -2.02915 -23.677 0.392005 1.26541 
